<?xml version="1.0" encoding="UTF-8" standalone="no"?>
<svg
   xmlns:dc="http://purl.org/dc/elements/1.1/"
   xmlns:cc="http://creativecommons.org/ns#"
   xmlns:rdf="http://www.w3.org/1999/02/22-rdf-syntax-ns#"
   xmlns:svg="http://www.w3.org/2000/svg"
   xmlns="http://www.w3.org/2000/svg"
   id="svg8"
   preserveAspectRatio="xMidYMid meet"
   viewBox="0 0 640.000000 480.000000"
   height="480.000000pt"
   width="640.000000pt"
   version="1.0">
  <defs
     id="defs12" />
  <metadata
     id="metadata2">
Created by potrace 1.16, written by Peter Selinger 2001-2019
<rdf:RDF>
  <cc:Work
     rdf:about="">
    <dc:format>image/svg+xml</dc:format>
    <dc:type
       rdf:resource="http://purl.org/dc/dcmitype/StillImage" />
  </cc:Work>
</rdf:RDF>
</metadata>
  <g
     id="g6"
     stroke="none"
     fill="#000000"
     transform="translate(0.000000,480.000000) scale(0.100000,-0.100000)">
    <path
       id="path4"
       d="M0 3819 c0 -858 2 -982 15 -995 8 -9 15 -19 15 -24 0 -5 -7 -15 -15 -24 -13 -13 -15 -181 -15 -1395 l0 -1381 1134 0 c993 0 1135 2 1140 15 3 8 12 12 21 9 10 -4 18 2 24 17 9 22 10 22 12 4 1 -11 2 -26 2 -32 -1 -7 3 -13 8 -13 8 0 11 8 8 26 0 4 5 11 13 15 10 7 10 9 1 9 -7 0 -13 5 -13 11 0 6 7 9 15 5 8 -3 15 0 16 7 0 7 5 1 10 -12 8 -19 6 -27 -6 -33 -8 -5 -15 -13 -15 -18 0 -6 412 -10 1101 -10 l1101 0 -6 27 c-6 32 -20 245 -36 553 -5 118 -15 287 -20 375 -11 173 -26 567 -40 1063 -9 297 -8 316 10 376 26 84 37 92 125 89 79 -3 86 0 122 67 45 80 36 116 -34 145 -126 53 -212 245 -177 395 8 33 21 74 29 89 16 32 12 41 -22 41 -38 0 -69 27 -94 83 -20 46 -23 76 -30 247 -4 107 -12 223 -19 258 -8 45 -8 83 0 141 10 70 9 84 -9 127 l-20 49 -2 -65 c-1 -36 0 -74 2 -85 2 -11 4 -54 4 -96 0 -56 -4 -81 -18 -100 -62 -84 -73 -118 -54 -154 12 -22 18 -124 11 -166 -7 -39 -51 -59 -119 -55 -51 2 -60 6 -68 27 -5 13 -6 46 -3 73 8 73 -9 126 -49 156 -58 42 -45 97 44 188 22 23 41 52 41 64 0 12 8 30 17 40 14 16 15 21 4 27 -8 5 -10 14 -7 20 4 6 0 18 -8 27 -9 8 -16 22 -16 30 0 8 -11 26 -24 41 -23 25 -52 126 -40 144 3 5 0 9 -6 9 -6 0 -8 4 -5 10 8 12 -20 41 -63 66 -18 10 -36 30 -39 43 -9 35 9 74 37 82 23 6 23 9 3 13 -5 1 -17 7 -28 13 -21 11 -105 37 -235 72 -41 11 -100 27 -130 36 -89 25 -356 84 -473 105 -59 10 -145 30 -190 44 -45 14 -122 34 -170 46 -86 20 -113 20 -1427 20 l-1340 0 0 -981z m3782 644 c101 -7 130 -24 106 -63 -15 -24 -22 -24 -148 4 -76 18 -90 27 -90 60 0 14 5 17 23 12 12 -4 61 -9 109 -13z m-2204 -625 c2 -24 7 -81 12 -128 5 -47 10 -141 9 -208 0 -68 2 -178 5 -245 7 -169 -2 -126 -13 63 -5 85 -14 175 -20 200 -6 25 -10 83 -9 130 l1 85 8 -109 c12 -150 20 -157 14 -12 -3 66 -8 122 -10 125 -24 23 -33 -77 -19 -209 2 -19 10 -168 18 -330 9 -162 18 -332 21 -377 4 -55 3 -83 -4 -83 -6 0 -11 19 -11 43 0 31 -3 38 -10 27 -5 -8 -10 -39 -10 -69 l0 -54 41 6 c22 3 42 7 45 9 2 3 -4 166 -14 364 -9 197 -15 395 -11 439 l6 80 1 -66 c1 -36 6 -69 11 -75 5 -5 17 -174 27 -376 10 -203 21 -368 24 -368 4 0 5 26 4 58 l-3 57 9 -53 c10 -63 11 -65 41 -57 22 5 24 10 21 58 -5 65 15 53 21 -13 3 -37 4 -33 7 25 l4 70 6 -70 6 -70 2 79 c2 68 0 77 -14 72 -10 -4 -14 -1 -12 6 3 7 11 13 19 13 10 0 15 -20 19 -80 3 -55 9 -80 18 -79 27 2 31 5 27 17 -10 33 -15 367 -5 367 5 0 9 -3 8 -7 -1 -5 2 -90 6 -191 l8 -183 67 6 c55 5 530 54 801 82 41 4 85 6 98 5 12 -2 22 2 22 8 0 5 6 10 13 10 7 0 17 10 22 23 14 30 75 38 75 9 0 -12 9 -22 23 -26 34 -9 87 -7 87 3 0 16 40 24 55 11 8 -6 11 -18 9 -25 -8 -20 -62 -29 -80 -14 -12 9 -21 8 -49 -7 -19 -10 -30 -21 -25 -24 17 -10 17 -120 0 -120 -5 0 -10 11 -10 25 0 14 -4 33 -9 43 -5 9 -12 25 -15 36 -5 14 -13 17 -35 13 -15 -3 -33 -1 -38 4 -9 9 -698 -42 -910 -67 l-53 -6 -2 -82 -2 -81 -3 83 c-2 45 -7 82 -11 82 -25 -1 -27 -24 -16 -220 9 -184 11 -196 16 -115 2 50 4 5 3 -100 -2 -140 0 -166 5 -100 5 65 6 36 5 -105 -2 -144 0 -172 5 -105 6 69 6 55 3 -59 -3 -123 -6 -151 -20 -161 -14 -10 -16 -29 -11 -141 3 -77 2 -111 -3 -84 -4 25 -8 82 -8 127 -1 45 -5 83 -10 85 -5 2 -12 86 -14 188 -4 141 -3 158 3 70 4 -63 8 -146 9 -183 1 -61 3 -67 19 -58 18 10 16 97 -19 724 -12 219 -13 227 -33 227 -20 0 -21 -5 -20 -97 l0 -98 -3 90 c-4 89 -22 145 -24 75 l-1 -35 -9 30 c-7 26 -8 25 -4 -10 3 -22 6 -80 7 -130 l2 -90 6 100 6 100 2 -97 c2 -111 13 -156 23 -93 l6 40 1 -40 c0 -22 -3 -49 -7 -60 -8 -18 -10 -16 -19 15 l-10 35 -1 -47 c-1 -26 -5 -49 -10 -52 -8 -5 -19 135 -23 292 -1 61 -2 62 -30 62 -28 0 -28 -1 -28 -62 0 -35 5 -101 12 -148 12 -89 17 -400 7 -400 -8 0 -22 185 -23 320 -4 284 -4 280 -27 280 -20 0 -21 -4 -15 -52 3 -29 6 -84 6 -121 0 -38 3 -66 8 -64 4 3 5 55 2 116 -3 60 -2 107 2 103 8 -9 14 -229 6 -237 -4 -4 -4 -23 -1 -43 4 -27 3 -34 -6 -27 -8 9 -31 226 -31 309 0 16 -6 18 -41 13 -23 -3 -46 -11 -50 -19 -7 -10 -9 -10 -9 0 0 6 -5 12 -11 12 -9 0 -10 -29 -5 -105 4 -61 3 -105 -2 -105 -13 0 -22 52 -22 131 0 45 -4 69 -11 69 -8 0 -10 -28 -6 -97 13 -205 15 -313 6 -313 -5 0 -9 40 -9 88 0 49 -3 91 -6 95 -4 3 -6 56 -5 117 2 101 1 110 -16 110 -10 0 -73 -7 -138 -15 -147 -18 -145 -18 -145 -1 0 15 29 19 204 32 l89 7 -6 176 c-4 128 -3 153 3 91 5 -47 10 -125 12 -175 2 -56 7 -88 13 -85 6 3 9 39 6 88 -3 78 -2 82 19 82 21 0 21 1 16 148 l-5 147 12 -152 c7 -84 17 -157 23 -163 9 -9 11 -5 8 12 -2 13 -13 217 -24 453 -11 237 -21 449 -23 473 -1 24 2 42 8 42 6 0 10 -18 10 -39 0 -33 2 -38 13 -28 11 8 13 26 8 69 -3 32 -2 58 2 58 5 0 9 -19 10 -42z m2733 -699 c54 -17 68 -65 46 -159 -21 -90 -65 -130 -108 -97 -31 24 -30 59 1 95 17 17 37 32 46 32 10 0 14 5 10 15 -3 8 0 15 5 15 7 0 9 9 6 22 -4 12 -1 28 5 35 6 8 8 16 4 20 -3 3 -6 1 -6 -5 0 -7 -13 -12 -30 -12 -20 0 -30 5 -30 15 0 8 -4 15 -10 15 -5 0 -10 5 -10 10 0 13 24 13 71 -1z m-516 -90 c9 -39 14 -74 11 -76 -2 -3 2 -20 10 -40 18 -41 12 -64 -25 -102 -26 -27 -28 -27 -39 -10 -7 11 -19 19 -27 19 -23 0 -38 47 -23 73 7 12 13 47 14 77 0 59 28 130 49 130 8 0 20 -28 30 -71z m-3328 -411 c6 -7 14 -29 18 -48 9 -41 31 -70 55 -70 19 0 46 -27 37 -36 -5 -5 -88 -15 -386 -46 l-114 -11 -20 24 c-15 19 -18 35 -15 77 6 68 27 90 93 97 108 12 150 17 152 19 1 1 40 3 86 4 59 2 87 -1 94 -10z m2003 -157 c10 -12 33 -12 40 -1 5 7 10 2 14 -14 3 -14 12 -26 19 -26 7 0 23 -10 36 -21 21 -20 22 -20 20 -3 -4 24 8 44 27 44 9 0 14 -11 14 -34 0 -28 24 -67 37 -58 1 1 10 2 18 2 20 0 20 -39 0 -46 -22 -9 -65 4 -65 20 0 7 -7 19 -16 27 -12 10 -17 10 -23 0 -5 -8 -18 -10 -34 -5 -22 5 -27 12 -27 35 0 19 -5 29 -15 30 -32 3 -36 4 -43 16 -9 15 -71 14 -67 -1 2 -6 6 -59 9 -118 5 -90 3 -108 -9 -108 -8 0 -18 -7 -23 -16 -7 -13 -11 -9 -16 20 -4 23 -13 36 -22 36 -14 0 -15 -22 -9 -187 4 -104 5 -186 2 -183 -8 7 -15 94 -23 263 -5 121 -4 147 7 145 9 -2 16 11 20 37 6 37 6 38 8 8 1 -34 16 -52 24 -31 3 7 6 3 6 -9 1 -12 6 -25 12 -28 7 -5 9 23 4 95 -6 91 -5 103 12 115 17 13 51 11 63 -4z m-297 -331 c3 -74 3 -127 0 -117 -7 27 -23 20 -23 -10 0 -16 7 -161 15 -323 8 -162 15 -298 15 -302 0 -5 -4 -8 -10 -8 -5 0 -11 37 -13 83 -2 68 -4 61 -6 -48 -2 -71 -6 -118 -8 -102 -2 15 -9 27 -14 27 -5 0 -10 35 -10 78 -1 42 -4 65 -6 50 -9 -58 -23 -24 -24 57 -1 47 -2 92 -3 100 0 8 3 15 8 15 5 0 9 -26 9 -58 l-1 -57 9 60 c5 33 7 141 5 240 l-4 180 9 -180 c5 -99 14 -189 19 -200 7 -14 9 6 5 65 -15 264 -17 402 -7 396 20 -12 25 41 19 192 -4 101 -3 123 3 72 4 -41 10 -136 13 -210z m-719 -260 c19 -409 19 -410 7 -410 -5 0 -12 46 -16 103 -13 199 -32 662 -27 670 14 27 21 -43 36 -363z m-726 314 c19 -13 22 -24 22 -92 0 -42 -4 -83 -8 -90 -5 -7 -24 -14 -43 -16 -19 -3 -51 -9 -72 -14 -36 -10 -68 -8 -108 4 -9 2 -19 -2 -22 -10 -5 -12 -12 -13 -35 -5 -27 9 -30 15 -36 71 -9 73 0 88 44 71 26 -10 32 -9 40 7 5 10 26 24 46 30 20 7 45 21 56 32 10 10 27 17 36 14 9 -3 24 -1 32 4 20 13 22 13 48 -6z m597 -751 c3 -10 1 -19 -6 -22 -8 -2 -8 -5 0 -10 7 -5 11 -49 12 -119 1 -62 5 -112 10 -112 5 0 9 10 9 23 l0 22 19 -24 c19 -24 19 -23 13 87 -3 80 -2 112 7 112 6 0 11 -12 11 -27 0 -16 4 -109 10 -208 16 -304 16 -360 3 -358 -17 4 -27 -76 -19 -147 4 -37 3 -61 -4 -65 -9 -6 -13 23 -14 128 -1 17 -6 35 -12 39 -7 4 -12 43 -13 93 -2 94 -8 118 -24 108 -7 -4 -8 20 -4 75 3 50 1 82 -5 82 -5 0 -7 4 -4 9 3 5 -1 12 -11 15 -14 6 -15 0 -10 -51 3 -32 2 -65 -3 -73 -5 -8 -10 -13 -11 -10 0 3 -2 13 -4 22 -2 9 -6 101 -10 204 -6 139 -5 185 4 180 6 -4 11 -1 11 6 0 15 19 38 31 38 4 0 10 -8 14 -17z" />
  </g>
</svg>
